<svg xmlns="http://www.w3.org/2000/svg" viewBox="0 0 380 450">
  <path d="M35.112 448.73c-11.598-3.136-23.76-12.686-29.32-23.024C-.284 414.416.007 421.342.007 260.81c0-131.817.162-147.174 1.59-150.743C3.914 104.28 100.4 6.917 108.09 2.87L113.5.022h230.47l5.69 2.3c12.113 4.895 23.114 15.883 27.99 27.957l2.32 5.742v377.783l-2.274 5.62c-5.047 12.475-15.607 23.06-28.002 28.068l-5.725 2.312-149.97.192c-130.94.168-154.255-.014-158.888-1.266zm297.528-46.08c1.758-1.59 1.83-9.646 1.83-176.476 0-160.056-.13-177.136-1.656-178.823-1.582-1.746-3.37-1.828-94.47-1.828H143v38.44c0 33.347-.1 35.23-2.154 40.72-2.906 7.767-10.397 15.258-18.164 18.164-5.49 2.054-7.373 2.154-40.72 2.154H46.008v127.17c0 116.932.133 128.625 1.655 130.306 1.588 1.756 8.335 1.83 144.163 1.83 130.28 0 139.13-.132 140.814-1.656zm-156.275-50.935c-1.79-1.02-42.792-39.095-71.865-66.74-4.4-4.183-10.86-10.276-14.353-13.54-7.168-6.696-9.15-9.868-9.142-14.635.007-4.38 2.297-7.818 16.38-24.584 12.57-14.967 15.708-17.272 20.85-15.317 1.386.526 10.14 8.077 19.45 16.78 30.235 28.253 38.033 35.32 38.932 35.285.486-.02 19.108-23.526 41.383-52.236 27.887-35.946 41.313-52.486 43.11-53.11 1.435-.5 3.77-.616 5.188-.26 3.387.85 34.03 26.87 35.536 30.175 1.733 3.805 1.41 8.553-.833 12.232-3.072 5.04-109.8 140.303-113.608 143.983-3.595 3.475-7.233 4.123-11.027 1.965z"/>
</svg>

