<svg xmlns="http://www.w3.org/2000/svg" viewBox="0 0 390 420">
  <path d="M.642 413.733c1.903-18.574 11.19-36.947 24.93-49.316C38.13 353.115 53.4 344.83 85.277 332.024c32.23-12.946 42.533-18.535 51.143-27.744 6.26-6.694 8.07-10.55 8.63-18.363l.472-6.6-9.373-1.248c-21.975-2.927-44.898-9.082-54.518-14.637-4.56-2.634-9.356-7.774-9.356-10.03 0-.793 1.08-3.153 2.4-5.244 6.172-9.78 8.39-23.178 9.628-58.16 2.096-59.24 3.538-76.802 8-97.39C104.08 38.244 135.223 7.19 186.775.745c16-2 30.178.526 41.614 7.414 5 3.01 6.64 3.443 15 3.95 30.417 1.847 50.135 24.072 58.72 63.91 4.278 19.85 5.275 34.247 6.16 88.98.95 58.595 1.776 67.87 6.99 78.47 1.63 3.316 3.502 6.76 4.157 7.654 2.927 3.994-6.232 12.147-19.02 16.932-9.333 3.492-23.375 6.757-38.78 9.017-8.162 1.197-15.467 2.356-16.233 2.575-2.248.643-.712 12.645 2.27 17.733 3.41 5.82 11.884 13.53 20.122 18.31 7.82 4.535 13.956 7.283 36.5 16.344 34.875 14.018 49.26 22.297 62.78 36.13 12.394 12.682 18.77 26.694 21.657 47.586l.587 4.25H0z"/>
</svg>

