<svg xmlns="http://www.w3.org/2000/svg" width="513" height="335" viewBox="0 0 513 335">
  <path fill="hsl(50, 98%, 54%)" d="M391.98 134.52c2.417-2.462 4.076-4.797 3.687-5.187-.733-.732-9.667 7.47-9.667 8.875 0 1.697 1.76.612 5.98-3.687zm11.434 58.444c2.058-2.278 3.47-4.412 3.14-4.743-.667-.666-10.554 8.726-10.554 10.03 0 1.496 3.616-1.08 7.414-5.285zM392 214.882c-3.516-1.395-8.83-6.71-11.088-11.092-4.696-9.112.36-21.324 12.06-29.14 1.36-.907 2.16-1.65 1.777-1.65-.385 0-8.427 1.8-17.874 4-20.11 4.683-22.725 4.855-25.703 1.686-2.74-2.917-2.922-8.7-.347-11.03 1.043-.944 10.574-3.69 22.227-6.404l20.4-4.752-6.258-.6c-4.915-.472-7.058-1.245-9.978-3.596-8.67-6.982-10.595-16.627-5.196-26.04 3.346-5.834 11.04-12.47 16.58-14.298 7.72-2.548 16.87 1.254 22.124 9.194 3.353 5.067 3.736 13.333.87 18.742-2.393 4.514-10.23 12.217-14.595 14.346-5.058 2.466-3.56 2.23 17.39-2.755 10.39-2.47 19.975-4.493 21.296-4.493 3.436 0 7.313 4.24 7.313 8 0 5.636-2.863 7.178-21.305 11.477l-16.804 3.918 4.19 1.237c7.753 2.29 14.848 11.54 14.897 19.422.05 7.875-8.252 18.897-17.34 23.024-4.49 2.038-10.67 2.377-14.638.804zm56.808 1.868c21.68-21.587 40.715-41.005 42.304-43.15 3.188-4.305 3.653-8.253 1.46-12.4-.785-1.485-23.397-24.55-50.25-51.258-52.48-52.196-52.274-52.023-66.03-55.372-3.606-.878-20.182-2.042-43.933-3.084-40.105-1.76-41.106-1.7-43.39 2.57-.945 1.765-.673 2.152 2.226 3.158 1.817.63 7.188 3.09 11.936 5.465l8.633 4.315 3.867-1.642c6.046-2.568 14.174-2.173 20.666 1.004 11.15 5.456 16.174 17.537 12.484 30.026-1.618 5.476-10.126 14.062-15.38 15.52-14.324 3.978-28.075-3.212-32.037-16.75-.982-3.356-1.332-6.902-.94-9.523l.627-4.174-6.59-3.25-6.588-3.248.585 9.27c.32 5.1 1.036 18.943 1.59 30.762 1.11 23.81 1.62 26.613 6.54 36.023 2.936 5.61 10.235 13.335 52.68 55.75L398.55 256h10.846l39.415-39.25zM270.585 51.738l1.808-4.373c2.373-5.738 9.53-11.96 16.003-13.915 4.6-1.39 8.8-1.387 42.604.03 44.108 1.846 50.716 2.793 64 9.17l9.5 4.56 50.826 50.645c37.644 37.51 51.5 51.942 53.422 55.645 2.032 3.915 2.612 6.52 2.674 12 .15 13.49 1.422 11.86-47.75 61.227-24.776 24.872-45.57 44.945-47.516 45.87-4.573 2.17-16.62 1.45-24.157-1.443-5.02-1.925-10.007-6.627-56.644-53.383-50.955-51.083-51.155-51.3-55.183-59.77-5.946-12.502-6.922-17.743-8.097-43.5-.578-12.65-1.334-27.897-1.682-33.884l-.63-10.886"/>
  <path fill="hsl(174, 100%, 32%)" d="M151 67.766c18.46-5.667 32.53-16.79 36.035-28.49 1.085-3.62 1.02-4.84-.45-8.696-1.795-4.697-6.984-10.02-11.407-11.702-6.02-2.29-16.29 5.444-24.705 18.597-3.685 5.76-16.47 31.274-16.472 32.87 0 1.193 9.316-.22 17-2.58zm-39.51.984c-1.767-6.16-15.925-32.938-20.178-38.162-12.163-14.942-19.27-15.992-28.72-4.243C54.338 36.61 62.522 51.762 82 62.273c8.666 4.676 20.2 8.38 26.817 8.61 2.985.105 3.253-.11 2.673-2.133zm72.123 42.41c2.812-1.114 6.637-2.953 8.5-4.09l3.387-2.064-24.75-.004c-13.613-.002-24.75.185-24.75.415 0 1 7.643 5.007 12.836 6.728 7.048 2.335 17.42 1.922 24.777-.987zM230 157.722c0-47.408.093-46.464-4.954-50.44-2.694-2.124-4.08-1.448-11.77 5.73-13.406 12.523-32.413 19.918-47.69 18.558-8.696-.772-19.266-4.41-26.2-9.014-2.946-1.955-5.587-3.555-5.87-3.555-.284 0-.516 18.676-.516 41.5V202h97zM115 153.5V105l-43.25.002c-39.173 0-43.58.166-46.75 1.75-6.988 3.49-6.997 3.557-6.998 51.998L18 202h97zm109.033 161.983c5.964-3.084 5.967-3.107 5.967-51.433V220h-97v97h44.05c37.418 0 44.49-.228 46.983-1.517zM115 268.5V220H17.922l.29 44.92.288 44.92 2.5 2.69c1.375 1.48 3.4 3.06 4.5 3.516 1.1.455 21.687.856 45.75.89L115 317zM269.764 69.73l-7.413.56c-4.63.35-9.136 1.396-12.01 2.786-4.89 2.368-13.896 10.855-16.316 15.378-1.34 2.502-1.298 2.812.508 3.8 3.425 1.874 8.723 8.077 10.882 12.742 2.07 4.472 2.085 5.235 2.085 106.004 0 101.09-.01 101.518-2.107 106.05-3.078 6.654-7.775 11.5-14.212 14.66l-5.68 2.79-99.5.194c-78.18.153-100.51-.08-104.21-1.084h.002c-8.77-2.383-14.777-7.8-18.84-16.988C1.025 312.272.975 309.562.975 211c0-99.986.023-101.21 2.06-105.828 2.72-6.16 8.29-11.855 14.464-14.782 4.986-2.364 5.1-2.37 44-2.433l39-.063-8.12-2.402C75.74 80.57 62.836 73.054 53.707 62.967c-15.746-17.4-16.27-35.976-1.457-51.64 20.71-21.897 46.41-10.12 66.737 30.587l4.2 8.414 5.332-10.18c16.97-32.412 36.272-45.342 54.933-36.8 3.016 1.382 7.67 4.558 10.344 7.058 26.643 24.922 5.326 63.165-42.146 75.61l-7.15 1.874 34.074.055 34.074.055 4.775-6.988c5.806-8.498 14.618-17.773 20.25-21.314 6.247-3.93 15.21-6.6 24.557-7.32l8.355-.64"/>
</svg>

