<svg viewBox="0 0 67 31" id="icon--bow" class="icon icon--bow">
    <path d="M17.23 29.516C10.183 27.453 5.782 25.67 2.66 21.96.524 19.422.04 17.822.04 13.322c0-4.948.354-6.857 3.4-9.903C6.523.337 8.34.02 13.584.02c7.82 0 13.8 3.938 17.373 9.573l2.73 4.305 3.177-5.227c6.457-10.623 25.19-11.507 29.04-2.208 1.574 3.796 1.373 10.772-.432 14.263-1.81 3.5-10.12 7.737-17.27 9.233-7.286 1.524-24.828 1.357-30.972-.442zm9.77-5.65C27 17.65 20.464 8 16.256 8c-5.686 0-7.99 5.528-4.272 10.253C15.57 22.813 27 27.085 27 23.866zm21.68-.953c7.43-3.596 11.076-9.847 7.495-13.804-4.686-5.18-13.302 1.81-15.634 12.64-.627 2.916-.466 3.25 1.565 3.25 1.245 0 4.204-.94 6.575-2.087z"/>
</svg>
