<svg viewBox="0 0 495 365" id="icon--car" class="icon icon--car">
    <path d="M106.21 362.444c-10.236-2.755-16.366-6.428-24.793-14.86-5.115-5.116-9.05-10.103-10.72-13.584-7.55-15.75-7.745-33.52-.53-48.787 3.49-7.384 13.112-18.11 20.505-22.855 11.585-7.435 27.53-10.21 41.53-7.23 18.65 3.973 36.326 21.155 41.413 40.26 3.016 11.326 1.22 27.194-4.372 38.612-3.56 7.268-16.922 20.606-24.243 24.198-11.59 5.686-27.124 7.387-38.79 4.246zm24.3-31.31c4.647-2.11 9.846-7.656 11.992-12.793 2.202-5.27 1.92-14.463-.607-19.84-2.35-5.002-7.57-10.05-12.54-12.125-4.347-1.816-14.21-1.752-18.696.123-19.42 8.114-19.57 36.665-.238 45.084 4.532 1.973 15.286 1.734 20.087-.447zm247.765 31.327c-12.605-3.394-26.185-13.41-33.377-24.618-9.642-15.027-10.5-36.263-2.168-53.67 3.712-7.756 16.886-20.96 24.442-24.5C375.39 255.822 383.368 254 392 254c14.756 0 26.615 4.79 37.532 15.16 18.165 17.255 22.705 42.39 11.71 64.84-3.573 7.3-16.943 20.67-24.242 24.243-11.5 5.632-27.15 7.336-38.725 4.218zm23.507-31.01c8.827-3.682 14.16-12.026 14.196-22.21.036-10.285-5.598-19.094-14.623-22.865-4.706-1.966-15.017-1.712-19.864.49-4.61 2.095-10.083 7.916-12.195 12.972-1.91 4.573-1.81 13.995.203 18.82 2.1 5.03 7.016 10.13 12.002 12.443 4.99 2.316 15.148 2.49 20.282.35zM8.395 314.1c-1.707-1.042-4.117-3.532-5.354-5.534C.905 305.11.79 303.918.79 284.984c0-22.276.49-24.234 7.162-28.73C11.226 254.046 11.89 254 39.648 254c15.594 0 28.352.265 28.352.59 0 .324-2.252 3.116-5.004 6.204-6.037 6.773-13.05 20.147-15.58 29.706-1.143 4.324-1.863 10.534-1.883 16.244l-.033 9.244-17 .002c-14.923.002-17.38-.23-20.105-1.89zm186.032-7.353c-.042-5.354-.825-12.194-1.86-16.247-2.28-8.948-9.556-22.89-15.785-30.258l-4.856-5.742 73.787-.516c40.583-.284 73.87-.622 73.97-.75.1-.13.324-39.497.5-87.484l.317-87.25 2.19-4.095c2.416-4.512 8.172-10.022 11.986-11.472 1.358-.516 18.973-.933 39.44-.933 41.115 0 40.52-.088 45.1 6.68 2.175 3.21 24.207 41.306 32.573 56.32 1.378 2.475 7.015 12.375 12.524 22 16.488 28.802 14.88 21.776 15.47 67.644.484 37.865.576 39.356 2.41 39.356 3.568 0 6.892 3.123 9.876 7.75l2.943 4.642-.017 18.554c-.015 17.378-.16 18.806-2.265 22.524-3.847 6.795-6.55 8.53-17.128 8.523l-9.102-.007-.116-9.743c-.066-5.573-.843-12.525-1.815-16.243-6.68-25.533-27.805-46.685-53.57-53.638-8.946-2.414-29.054-2.414-38 0-20.403 5.506-39.288 20.905-47.996 39.138-5.336 11.173-7.277 19.236-7.4 30.746l-.104 9.747H256l-61.5.002-.073-9.248zm238.036-150.352c.967-.967 1.357-2.386.982-3.568-.587-1.85-11.68-21.713-26.85-48.077L399.832 93H352v31.917c0 24.597.287 32.032 1.25 32.42.688.278 18.43.54 39.43.584 33.784.07 38.362-.105 39.783-1.525zm-398.51 79.64c-25.88-.588-27.05-.86-30.88-7.158-1.708-2.806-1.88-7.375-2.497-66.195C.212 127.932.286 81.5.744 59.5c.95-45.76.263-41.892 10.133-51.227C20.527-.854 8.912-.19 153.757.11c144.628.302 129.667-.673 139.71 9.102 9.967 9.7 9.533-1.874 9.533 120.826V237l-122.75-.214c-67.513-.118-133.346-.456-146.298-.75zm237.01-32.49c1.784-2.15 1.526-169.018-.258-171.167-1.095-1.32-15.486-1.502-119-1.502-108.32 0-117.866.132-119.13 1.654C31.438 33.903 31.5 46.686 31.5 117s.233 84.974 1.372 86.346C34.135 204.866 43.687 205 152 205c101.787 0 117.92-.197 118.962-1.454zM66.694 172.3c-.993-.257-1.668-.84-1.5-1.298.168-.456 9.982-12.006 21.81-25.666 26.96-31.138 24.46-27.835 22.828-30.164-1.257-1.794-24.646-28.84-38.575-44.607-3.433-3.886-6.246-7.402-6.25-7.815-.004-.413 10.754-.75 23.907-.75h23.915l22.335 25.525c12.284 14.04 22.747 26.604 23.25 27.922.66 1.73.487 3.048-.623 4.725-.846 1.28-11.272 13.404-23.168 26.942-21.44 24.4-21.67 24.62-26.266 25.25-5.204.714-38.864.662-41.663-.064zm82.555-.006c-1.238-.238-2.25-.782-2.25-1.208 0-.426 10.125-12.415 22.5-26.642s22.5-26.56 22.5-27.406c0-.846-10.126-13.184-22.5-27.418C157.124 75.386 147 63.348 147 62.87c0-.48 10.312-.87 22.915-.87h22.915l22.335 25.525c12.284 14.04 22.747 26.604 23.25 27.922.66 1.73.487 3.048-.623 4.725-2.492 3.768-40.58 47.074-44.046 50.078l-3.17 2.75-19.538-.136c-10.746-.075-20.55-.33-21.788-.57z"/>
</svg>
