<svg viewbox="0 0 270 255" viewBox="0 0 undefined undefined" id="icon--cart" class="icon icon--cart">
    <path d="M46.994 253.076c-7.423-2.29-16.816-10.916-18.903-17.36-.572-1.77-4.627-24.496-9.01-50.506-7.127-42.292-8.227-47.595-10.402-50.18C-.4 124.24-2.31 107.144 4.052 93.612c5.03-10.7 18.15-20.89 28.717-22.31l4.003-.536 23.18-33.893C75.824 13.67 84.046 2.51 86.02 1.49 95.108-3.21 106 3.31 106 13.45c0 3.677-1.08 5.406-26.713 42.8L69.86 70H136l64.444.34-9.426-13.75c-25.634-37.395-26.713-39.124-26.713-42.8 0-10.275 10.78-16.72 19.993-11.955 1.99 1.03 10.124 12.082 26.04 35.38 22.853 33.456 23.195 33.89 26.99 34.4 6.19.83 14.58 5.236 20.336 10.68 14.947 14.136 16.533 38.967 3.427 53.664-1.493 1.674-3.58 12.186-9.925 50-5.5 32.768-8.666 49.14-10.035 51.88-2.607 5.215-7.23 10.02-12.825 13.334l-4.5 2.665-88 .174c-48.4.096-87.433-.512-88.81-.938zm169.82-26.987c.247-.69 4.228-23.678 8.848-51.09l8.4-49.838 4.233-4.313c5.477-5.582 6.433-11.16 2.828-16.51-5.028-7.464 3.78-7.337-105.123-7.337-108.902 0-101.79-.466-106.818 6.997-3.602 5.345-2.65 10.93 2.816 16.498l4.222 4.302 8.363 49.81c4.6 27.394 8.586 50.39 8.86 51.1.716 1.868 162.703 2.248 163.372.38zM77.3 219.04c-6.32-3.852-6.3-3.697-6.296-48.74.003-38.702.104-40.965 1.956-44 3.78-6.202 12.46-8.17 18.85-4.274 6.063 3.696 6.19 4.69 6.19 48.54 0 34.95-.197 40.048-1.67 43.15-3.248 6.846-12.358 9.394-19.03 5.324zm52.004.004c-6.995-4.265-6.804-2.907-6.804-48.5 0-38.446.12-41.24 1.886-44.158 2.53-4.18 6.542-6.386 11.614-6.386 5.072 0 7.39 2.545 9.92 6.725 1.766 2.917 1.885 5.712 1.885 44.158 0 37.876-.14 41.256-1.804 43.798-4.133 6.31-10.627 8.064-16.696 4.364zm49.42.41c-6.31-3.85-6.42-4.677-6.42-48.548 0-43.85.128-44.845 6.19-48.54 6.39-3.897 15.07-1.93 18.852 4.272 1.85 3.035 1.952 5.295 1.955 43.483.005 44.565-.11 45.49-6.185 49.193-4.162 2.538-10.36 2.598-14.39.14z"/>
</svg>
