<svg viewBox="0 0 293 325" id="icon--clock" class="icon icon--clock">
    <path d="M126.235 293.503c-44.15-8.003-78.903-39.98-90.16-82.956-3.043-11.62-4.525-26.653-3.064-31.08 2.536-7.68 13.48-7.897 15.79-.314.562 1.84 1.282 7.172 1.6 11.847 1.472 21.557 11.762 43.078 28.265 59.113 17.24 16.752 37.14 25.724 60.925 27.47 8.345.613 10.146 1.063 12.107 3.023 3.186 3.187 3.117 8.67-.152 11.94-2.206 2.206-3.242 2.445-10.25 2.364-4.287-.05-11.064-.683-15.06-1.407zm31.554 10.434c42.34-4.636 78.545-29.755 97.614-67.726 22.888-45.575 14.204-101.5-21.545-138.736-31.115-32.41-75.624-45.074-119.44-33.984-12.466 3.154-31.377 12.31-42.07 20.366-23.885 18-40.613 44.124-46.925 73.286-2.207 10.198-2.965 30.673-1.515 40.955 7.838 55.603 52.458 99.45 107.593 105.73 11.366 1.295 15.31 1.312 26.286.11zM33 324.283c-5.618-1.61-8.438-5.65-7.3-10.465.3-1.275 6.188-8.02 13.082-14.99l12.535-12.673-7.756-8.328C18.81 251.25 5.904 218.41 5.904 182c0-50.284 25.406-94.907 68.597-120.482 63.593-37.657 145.907-18.943 187.044 42.525 16.15 24.13 23.584 48.707 23.584 77.957 0 37.806-12.907 69.73-39.537 97.788l-6.916 7.288 12.663 12.798c8.13 8.217 12.663 13.55 12.663 14.897 0 5.837-3.74 9.6-9.382 9.438-2.425-.07-5.402-2.514-16.29-13.38l-13.322-13.295-2.753 1.746c-45.768 29.02-104.078 30.102-148.755 2.757l-8-4.897-13 12.88C39.955 322.45 36.197 325.2 33 324.284z"/>
    <path d="M274.664 57.692c1.486-15.913-8.954-31.724-24.54-37.165-10.44-3.644-24.752-.95-34.045 6.41l-4.066 3.22 12.743 6.394c14.66 7.356 26.342 15.84 37.743 27.414l8 8.12 1.788-4.04c.983-2.224 2.052-6.882 2.376-10.352zm-10.49 34.522c-1.47-1.533-5.15-5.855-8.174-9.605-12.74-15.798-33.77-30.168-54.202-37.042-12.89-4.336-14.723-8.742-7.974-19.163 19.416-29.98 60.758-33.527 84.676-7.267 18.057 19.825 18.02 52.395-.082 71.287-5.458 5.695-9.955 6.26-14.245 1.79zM46 49.904c8.425-6.29 20.797-13.564 28.91-16.998l5.41-2.29-4.243-3.768c-6.57-5.83-13.798-8.123-24.08-7.643-7.293.34-9.39.873-14.768 3.745-7.478 3.994-12.516 9.293-16.097 16.93-2.288 4.88-2.627 6.872-2.576 15.12.04 6.738.557 10.598 1.774 13.278l1.716 3.777 8.227-8.277c4.525-4.553 11.6-10.797 15.725-13.875zM13.97 90.068C7.79 83.485 3.15 73.778 1.366 63.692-3.658 35.284 14.81 8.465 43.5 2.51c22.634-4.698 47.234 6.94 57.042 26.986 4.13 8.442 2.136 12.14-8.408 15.588C70.648 52.112 48.16 67.707 34.926 84.76 27.918 93.786 26.41 95 22.19 95c-3.007 0-4.338-.8-8.218-4.932zm126.34 108.486c-5.327-2.348-5.45-3.81-5.116-59.89l.304-50.838 2.806-2.413c3.81-3.276 8.598-3.208 11.77.167l2.424 2.58.278 46.88.28 46.878 30.89.29 30.894.292 2.58 2.424c3.552 3.34 3.552 8.812 0 12.152l-2.58 2.424-35.67.23c-28.845.186-36.282-.04-38.86-1.176z"/>
</svg>
