<svg viewBox="0 0 373 519" id="icon--face" class="icon icon--face">
    <path d="M173.5 517.533c-38.717-7.113-78.665-40.377-103.61-86.27-3.377-6.216-3.407-6.24-7.89-6.263-10.886-.057-24.266-6.228-32.106-14.807-9.21-10.077-13.09-20.763-12.847-35.384.13-7.778-.282-10.545-2.497-16.81-3.893-11.01-9.217-33.34-11.023-46.234-.87-6.196-2.017-14.018-2.553-17.38-2.62-16.445.018-47.166 6.025-70.18 11.45-43.872 37.89-79.183 78.284-104.542l8.483-5.326-3.39-5.92C79.298 89.074 78.838 67.66 89.082 48 100.913 25.293 127 8.608 161.333 1.793 164.724 1.12 174.25.553 182.5.533c12-.026 17.046.42 25.234 2.233 33.17 7.343 57.68 23.92 68.68 46.45C281.17 58.958 283 66.678 283 77c0 10.625-1.856 18.233-6.892 28.254l-3.897 7.754 9.146 5.394c16.335 9.638 26.892 17.83 40.703 31.59 28.49 28.384 42.55 57.564 48.91 101.508 2.562 17.71 2.555 30.927-.027 50.5-3.042 23.052-7.18 41.047-13.81 60.07-2.197 6.297-2.956 10.327-3 15.93-.113 13.59-5.513 25.577-15.732 34.916-8.152 7.452-17.367 11.17-30.773 12.414-4.86.45-4.89.434-10.745-5.69-7.003-7.323-7.272-9.2-3.415-23.8 5.17-19.572 10.873-58.61 11.723-80.235l.31-7.894-12.874-3.385c-48.05-12.635-82.644-35.03-101.762-65.88-2.683-4.326-4.852-6.92-5.147-6.15-1.363 3.553-13.586 17.22-20.948 23.425-20.706 17.45-46.543 31.227-83.27 44.402l-16 5.74.09 11.32c.078 10.097 1.814 29.576 3.026 33.968.356 1.29 1.552.583 5.458-3.222 6.168-6.008 15.06-11.032 24.926-14.086 9.382-2.903 25.166-3.173 34.686-.593 11.768 3.19 22.288 7.78 24.074 10.507 2.493 3.804 2.19 9.602-.658 12.635-3.412 3.632-7.144 4.125-12.68 1.677-2.572-1.14-4.844-2.07-5.05-2.07-.204 0-.372 2.233-.372 4.962 0 9.95-6.654 21.095-14.315 23.978-3.612 1.36-10.758 1.36-14.37 0C102.825 382.122 96 370.926 96 361.462c0-2.454-.38-4.462-.844-4.462-.465 0-3.348 2.19-6.408 4.868-6.564 5.744-9.456 6.7-14.24 4.7-1.93-.806-3.508-1.046-3.508-.533s1.147 6.367 2.55 13.007c5.29 25.065 9.533 36.25 20.155 53.15 27.09 43.103 68.834 70.652 100.114 66.07 17.336-2.54 36.975-14.288 56.468-33.78l9.505-9.506 13.89 14.974-13.034 12.607c-30.224 29.23-59.04 40.14-87.15 34.976zM55.59 389.906c-1.888-7.923-4.22-19.02-5.185-24.656-.964-5.637-2.09-10.25-2.5-10.25-1.666 0-7.896 8.527-9.35 12.795-4.98 14.61 2.627 30.864 16.76 35.822 1.752.614 3.302 1.022 3.445.906.143-.116-1.283-6.693-3.17-14.617zm270.16 7.397c6.07-6.07 8.203-11.21 8.218-19.803.01-5.3-.56-8.214-2.35-12-2.54-5.368-7.852-11.092-9.405-10.132-.522.323-1.253 3.27-1.624 6.55-.628 5.538-6.672 35.794-8.153 40.81l-.658 2.226 4.792-1.633c2.886-.983 6.537-3.377 9.178-6.017zm-207.24-37.99c-.72-2.75-.76-2.765-1.748-.627-.556 1.203-.68 3.453-.273 5 .72 2.752.76 2.766 1.748.628.556-1.203.68-3.453.273-5zM345.357 331.5c4.344-18.503 5.755-29.225 6.354-48.275.664-21.106-.548-34.216-4.69-50.736-12.178-48.562-46.33-85.684-100.232-108.95-32.555-14.05-48.776-16.588-83.487-13.056-16.404 1.67-25.175 4.486-46.8 15.027-54.542 26.59-86.21 67.875-93.975 122.52-1.522 10.705-1.918 40.564-.676 50.874l.65 5.405 1.773-4.044c2.086-4.756 2.043-4.736 22.727-10.28 35.6-9.545 69.99-24.55 93.5-40.803 4.4-3.042 12.313-9.845 17.584-15.12 7.927-7.93 10.34-11.11 13.955-18.41 3.557-7.18 4.4-9.936 4.525-14.81.23-8.878 5.216-14.12 11.85-12.453 4.865 1.22 6.575 3.808 8.994 13.61 4.44 17.995 12.985 32.52 26.746 45.465 24.876 23.402 63.382 38.728 113.257 45.08 8.89 1.133 12.943 8 9.104 15.42-1.986 3.843-6.42 5.145-14.234 4.18l-6.217-.77-.49 4.062c-.272 2.235-.685 7.102-.92 10.817l-.426 6.754 4.135 1.863c2.274 1.026 6.154 3.483 8.62 5.46 2.47 1.98 4.78 3.276 5.138 2.884.357-.393 1.812-5.664 3.233-11.714zM35.31 339.696c2.382-1.817 5.817-3.92 7.634-4.673l3.305-1.37-.626-5.973c-.343-3.285-.624-8.34-.624-11.232v-5.258l-5.6 1.462c-3.08.805-6.85 1.19-8.375.854-2.796-.615-6.305-3.734-7.32-6.506-.39-1.07-.567-.925-.616.5-.107 3.113 6.802 35.5 7.573 35.5.176 0 2.268-1.487 4.648-3.304zm87.19-238.984c4.4-1.886 12.05-4.668 17-6.182 12.37-3.784 18.413-6.657 29.58-14.06 10.77-7.14 24.406-20.774 29.75-29.743 4.125-6.922 10.566-21.664 9.8-22.43-1.607-1.608-30.293 11.352-44.16 19.952-20.214 12.535-42.267 32.42-52.582 47.413-2.94 4.274-2.992 4.53-1.396 6.965.91 1.39 2.186 2.3 2.832 2.02.647-.278 4.776-2.05 9.176-3.936zm133.2.03c5.897-8.687 8.7-21.47 6.858-31.285l-.695-3.703-4.973 5.58c-5.51 6.182-17.823 15.812-25.143 19.664-2.61 1.374-4.738 2.724-4.727 3 .02.505 23.613 9.64 25.48 9.867.55.067 1.99-1.338 3.2-3.122zm-38.687-24.745c3.568-1.8 8.962-4.958 11.987-7.02 5.933-4.043 17.863-15.94 19.984-19.93 1.23-2.316 1-2.736-4.136-7.5-2.992-2.776-7.725-6.28-10.517-7.79l-5.076-2.743-2.744 7.743c-5.27 14.867-12.093 26.426-22.745 38.523l-5.97 6.78 6.366-2.396c3.502-1.318 9.285-3.868 12.853-5.667zm-88.958-26.104c11.764-9.736 22.135-16.92 34.59-23.96l8.855-5.005-5.5.67c-19.98 2.435-43.294 14.4-53.788 27.606-5.068 6.378-9.25 15.292-9.913 21.13l-.587 5.166 8.1-8.607c4.455-4.734 12.664-12.384 18.242-17zm108.15 333.98c-7.557-3.74-12.205-12.31-12.205-22.5 0-2.955-.168-5.373-.373-5.373s-2.477.93-5.05 2.07c-5.825 2.576-9.577 1.907-13.155-2.345-2.148-2.553-2.537-3.832-2.117-6.965.685-5.103 2.08-6.592 9.195-9.815 17.16-7.773 36.672-9.713 51.5-5.12 15.337 4.75 30 16.292 30 23.616 0 2.482-.862 4.493-2.905 6.78-2.448 2.74-3.562 3.234-7.08 3.142-3.306-.087-4.935-.83-7.844-3.58-2.018-1.907-5.127-4.465-6.907-5.684l-3.236-2.215.585 2.926c.322 1.608.057 5.47-.59 8.578-3.03 14.602-17.48 22.59-29.818 16.484zm10.187-24.45c-.333-1.324-1.007-2.16-1.5-1.857-1.06.655-1.202 6.79-.18 7.812 1.113 1.114 2.352-3.275 1.68-5.954z"/>
    <path d="M312.742 314.576c.052.114.106.227.16.34.156.248.323.49.49.733l-.02-.116c-.198-.298-.405-.617-.63-.958zm.63.958l.023.03a.975.975 0 0 0-.024-.24l-.038-.097c.015.105.027.202.04.306zm.023.03l-.004.085v.003c.07.1.136.204.206.304-.007-.024-.012-.07-.02-.093-.008-.024-.01-.032-.02-.055l-.16-.245zm-31.614 82.663c-3.57 0-7.352 3.657-8.057 7.793-1.76 10.322-8.006 18.07-19.96 24.756-11.256 6.294-11.325 10.698-.284 18.113 6.426 8.977 19.502 16.902 20.803 25.51 0 4.834 10.63 6.877 13.41 2.58.8-1.24 1.774-3.6 2.164-5.25 1.898-8.025 7.202-14.2 19.19-22.34 3.432-2.332 6.965-5.343 7.85-6.693 2.184-3.334 1.058-7.188-2.712-9.285-11.077-6.372-23.056-18.32-24.367-26.453-.842-5.218-4.077-8.733-8.037-8.733zm.085 30.023c.504.013 3.606 2.71 6.893 5.993l5.977 5.968-5.946 6.01c-3.27 3.303-6.414 6.007-6.987 6.007-.573 0-3.776-2.733-7.117-6.074l-6.075-6.077 6.17-5.923c3.395-3.26 6.582-5.915 7.085-5.903zM67.28 445.227c-4.396 0-6.39 1.91-7.895 7.564-1.195 4.49-3.58 7.1-10.79 11.808-4.12 2.69-4.857 3.67-5.118 6.8-.268 3.2.155 4.01 3.396 6.493 8.1 6.208 11.35 9.632 12.48 13.153.65 2.027 1.87 4.47 2.71 5.434.938 1.074 2.953 1.75 5.218 1.75 4.243 0 6.193-1.766 7.93-7.184 1.13-3.52 4.38-6.945 12.48-13.152 3.24-2.483 3.663-3.292 3.396-6.493-.26-3.13-1-4.11-5.12-6.8-7.21-4.706-9.594-7.317-10.788-11.806-1.505-5.654-3.5-7.563-7.897-7.563zm257.554 6.03c-1.733.082-3.477.802-4.937 2.263-1.307 1.306-2.596 4.18-2.995 6.672-.8 5.01-5.77 10.46-14.16 15.535-4.61 2.787-4.96 3.28-4.96 6.963 0 3.78.363 4.237 7.818 9.838 7.605 5.714 11.67 10.523 11.677 13.814.002.888.937 2.8 2.077 4.25 1.584 2.015 2.96 2.635 5.845 2.635 4.4 0 6.282-1.747 8.076-7.5 1.53-4.91 4.632-8.358 12.76-14.192 9.14-6.56 9.56-12.066 1.24-16.31-8.29-4.23-12.755-9.573-14.438-17.274-.883-4.036-3.978-6.497-7.262-6.688a7.343 7.343 0 0 0-.742-.004zm-257.52 19.21c1.184.034 2.295 1.42 1.522 2.672-.37.597-1.07 1.087-1.555 1.087-1.543 0-2.266-2.133-1.112-3.287a1.53 1.53 0 0 1 1.145-.473zm257.477 8.336c1.115.06 2.26.744 3.607 2.035l2.914 2.79-2.765 2.263c-3.534 2.894-4.407 2.878-7.236-.134-1.965-2.09-2.12-2.714-1.007-4.054 1.68-2.024 3.057-2.977 4.488-2.9z"/>
</svg>
