<svg viewBox="0 0 130 18" id="icon--gezatone" class="icon icon--gezatone">
    <path d="M27.784 2.977l-9.457.985.032-1.392L28.967.08l-1.184 2.897M65.73 7.63h5.413V18h3.09V7.63h5.464V5.057H65.73zm46.085 7.794h-.436l-7.886-10.366H98.29V18h3.092V7.63h.433L109.59 18h5.315V5.058h-3.09zm-18.747-2.18c0 1.753-.446 2.18-2.42 2.18h-4.11c-1.882 0-2.42-.465-2.42-2.163V9.816c0-1.85.538-2.33 2.476-2.33h3.994c1.844 0 2.48.424 2.48 2.31zM91.483 4.91H85.79c-3.518 0-4.77 1.057-4.77 4.606v4.06c0 3.137 1.308 4.424 4.77 4.424h5.693c3.617 0 4.683-1.19 4.683-4.423v-4.06c0-3.637-1.476-4.608-4.683-4.608zm-36.53 7.382l2.557-4.807h.144l2.46 4.807zm.315-7.234L48.41 18h3.617l1.677-3.264h7.66L63.027 18h3.638L59.858 5.058zm74.725 2.44V5.06h-12.647l.008 12.94h12.64v-2.44h-9.542v-2.97h9.225v-2.26h-9.233V7.5zM5.613 7.486h4.57c1.86 0 2.46.407 2.46 1.394h3.096c0-3.225-1.624-3.97-4.758-3.97H4.776C1.4 4.91 0 6.137 0 9.607v3.97C0 16.712 1.608 18 4.776 18h6.268c3.336 0 4.695-1.027 4.695-4.146V10.41H7.533v2.294h5.11v1.378c0 .932-.427 1.342-1.975 1.342H5.576c-2.05 0-2.477-.387-2.477-2.142V9.996c0-1.94.65-2.51 2.512-2.51zM17.824 18h13.22v-2.44h-10.12v-2.97h9.808v-2.26h-9.808V7.5h10.12V5.057h-13.22zM32.78 7.63h9.976l-9.977 7.83V18h14.546v-2.576h-9.62l9.62-7.756v-2.61H32.78v2.57"/>
</svg>
