<svg viewBox="0 0 505 330" id="icon--sale" class="icon icon--sale">
    <path d="M277.28 141.452c-13.645-6.8-20.52-21.715-15.307-33.2 2.41-5.31 5.7-7.044 9.995-5.265 3.694 1.53 4.72 4.77 3.163 9.97-2 6.684-1.465 9.908 2.27 13.643 6.202 6.202 14.958 3.947 13.12-3.38-.358-1.425-2.505-5.712-4.77-9.525-4.88-8.213-6.76-14.713-5.665-19.57 1.562-6.926 7.245-12.07 14.2-12.854 9.086-1.023 22.46 8.255 26.265 18.223 3.617 9.47-.02 19.507-7.07 19.507-5.327 0-6.74-2.59-5.925-10.858.68-6.895.63-7.11-2.302-10.043-1.648-1.65-4.185-3.296-5.638-3.66-2.77-.696-5.615.844-5.615 3.038 0 .678 2.745 6.586 6.1 13.128 5.61 10.938 6.066 12.31 5.674 17.072-1.1 13.344-15.443 20.278-28.495 13.774zm61.688 2.743c-.44-.168-4.046 1.33-8.015 3.328l-7.215 3.634 4.38 4.485 4.382 4.485 3.633-7.813c2-4.298 3.274-7.95 2.835-8.12zm-12.653 47.79c-4.782-1.908-5.396-6.484-1.923-14.337l2.392-5.41-7.696-7.65-7.696-7.65-5.724 2.53c-6.768 2.993-8.743 3.127-11.515.782-3.303-2.795-3.684-6.535-.976-9.583 2.975-3.347 49.5-23.677 54.114-23.645 4.93.034 9.71 4.847 9.71 9.774 0 2.785-20.77 51.392-22.796 53.35-2.287 2.208-5.236 2.895-7.89 1.838zm35.185 34.15c-1.65-1.023-7.838-6.84-13.75-12.927-15.007-15.45-15.582-12.967 8.558-36.992 10.62-10.57 20.05-19.216 20.953-19.216 5.026 0 9.44 5.06 8.172 9.365-.346 1.174-7.655 9.21-16.242 17.858l-15.612 15.722 9.21 9.393C372.7 219.442 373.865 222.136 370 226c-2.486 2.486-4.648 2.52-8.5.134zm38.875 38.238c-4.02-2.056-26.044-24.16-27.447-27.547-.635-1.533-.897-3.808-.582-5.057.315-1.25 8.83-10.483 18.925-20.52C406.61 195.996 410.1 193 412.524 193c2.4 0 5.373 2.472 17.19 14.288 7.857 7.86 14.287 15.08 14.287 16.046 0 2.24-4.382 6.666-6.6 6.666-.93 0-6.353-4.588-12.052-10.196l-10.36-10.197L411 213.5l-3.985 3.89 8.993 9.17c7.432 7.58 8.992 9.71 8.992 12.282 0 3.836-3.686 6.705-7.2 5.604-1.265-.395-6.244-4.57-11.064-9.277l-8.764-8.56-4.497 4.415-4.498 4.414 8.96 9.03c10.295 10.373 12.406 13.683 10.874 17.045-1.58 3.47-4.984 4.622-8.435 2.858z"/>
    <path d="M243.923 70.41c2.57-2.16 3.077-3.307 3.077-6.943 0-4.867-2.726-8.79-6.965-10.022-2.176-.632-2.03-.306 1.25 2.787 2.694 2.54 3.715 4.335 3.715 6.525 0 7.536-8.18 10.318-13.987 4.756-3.877-3.715-3.962-1.308-.09 2.564 3.83 3.83 8.696 3.956 13 .334zm195.33 194.84c33.678-33.64 49.55-48.637 50.112-50.75 1.988-7.478 3.305-4.358-89.055-96.605-91.916-91.804-90.032-93.69-102.81-97.45-3.753-1.105-72.69-4.96-89.827-5.023-7.377-.027-8 .143-10.82 2.964-4.75 4.75-3.717 10.266 5.647 14.036 4.4 1.772 10.738 4.738 14.084 6.592l6.084 3.37 3.916-1.86c12-5.703 26.484-1.183 32.67 10.197 3.66 6.73 4.383 12.588 2.395 19.378-5.84 19.95-32.926 24.54-44.386 7.523-4.394-6.524-5.764-11.89-4.562-17.876l.954-4.756-4.286-2.51c-5.774-3.385-13.528-6.654-14.195-5.986-.3.298.19 16.622 1.087 36.275 1.756 38.51 2.22 41.404 8.366 52.153 2.773 4.852 169.414 173.948 174.872 177.39 1.783 1.124 4.815 1.892 7.476 1.895l4.475.004 47.804-48.96zM377.5 328.552c-4.597-1.52-12.138-9.985-93.578-91.27-61.283-61.17-89.61-90.113-91.924-93.932-4.508-7.44-8.818-19.955-9.5-27.59-.494-5.544-3.498-68.127-3.498-72.894 0-1.63-.82-1.866-6.45-1.866-19.283 0-31.044 7.105-47.062 28.432-15.724 20.936-28.53 30.82-47.523 36.684-10.15 3.133-23.716 3.114-32.965-.047-14.78-5.05-30.253-16.2-40.297-30.477C-.767 67.816-1.247 65 2.3 61.455c3.74-3.742 7.757-3.29 11.465 1.295 11.34 14.014 15.3 16.946 21.596 21.367 9.598 6.74 18.12 9.283 28.97 8.644 18.493-1.09 32.596-10.742 50.38-34.482 10.053-13.42 17.054-19.894 27.22-25.173C151.735 28.012 159.763 26 170.282 26h8.494l.624-6.93c.76-8.435 10.178-16.665 19.35-18.734 5.5-1.24 89.98 2.74 99.062 4.67 4.022.853 11.447 3.595 16.5 6.094l9.188 4.542 87.715 91.233c95.036 98.846 93.745 91.493 93.737 104.625-.004 5.64-.52 7.97-2.654 12-1.916 3.614-17.412 18.223-51.98 52.715-51.35 51.24-51.632 52.682-62.643 53.57-3.198.26-7.085-.213-10.175-1.233z"/>
</svg>
