<svg viewbox="0 0 128 128" viewBox="0 0 undefined undefined" id="icon--search" class="icon icon--search">
    <path d="M111.5 127.074c-1.1-.497-6.942-5.89-12.983-11.988C92.477 108.99 86.95 104 86.234 104c-.715 0-3.527 1.128-6.248 2.507-20.427 10.35-46.984 5.633-63.744-11.325C-8.745 69.9-3.894 28.4 26.334 8.862c21.41-13.837 50.54-10.714 68.848 7.38 16.958 16.76 21.676 43.317 11.325 63.744-1.38 2.72-2.507 5.518-2.507 6.216 0 .697 5.287 6.57 11.75 13.05l11.75 11.78v4.964c0 4.217-.466 5.432-3.093 8.06-3.314 3.313-9.2 4.69-12.907 3.018zM73.146 92.17c27.152-12.96 30.715-49.953 6.57-68.203-7.273-5.496-13.682-7.47-24.216-7.454-8.003.01-9.74.36-15.68 3.164C30.533 24.06 24.736 29.73 20.235 38.84c-3.482 7.043-3.735 8.17-3.735 16.608 0 10.59 1.97 16.995 7.467 24.267 8.52 11.272 19.822 16.55 34.106 15.93 7.045-.307 9.73-.927 15.073-3.476z"/>
</svg>
