<svg viewBox="0 0 460 520" id="icon--user" class="icon icon--user">
    <path d="M19.5 519.077c-6.234-1.516-10.78-4.797-13.27-9.575-4.233-8.126-6.34-33.953-4.324-53.002 3.36-31.74 14.567-75.414 21.33-83.115 4.86-5.538 33.94-19.463 87.646-41.97l24.38-10.22-5.88-1.14c-31.145-6.046-54.556-21.433-59.88-39.356-2.477-8.346-.904-13.43 7.006-22.636 16.216-18.875 25.04-40.588 28.878-71.064.866-6.875 2.28-26 3.145-42.5 1.78-34.015 3.395-48.513 7.046-63.27 5.12-20.703 12.355-34.69 24.74-47.84 12.805-13.597 25.72-22.184 41.376-27.514 26.686-9.085 51.503-6.884 81.187 7.2C271.26 17.052 274.277 18 278.562 18c16.974 0 38.293 8.684 51.742 21.077 13.538 12.474 22.333 26.67 28.528 46.043 6.554 20.497 9.172 39.678 9.157 67.09-.012 21.15-1.178 36.594-4.25 56.29-2.82 18.063-2.687 22.99.786 29.37 4.188 7.695 11.127 12.625 26.285 18.673 12.367 4.935 19.475 11.19 21.8 19.185 2.442 8.402.137 17.56-5.763 22.894-10.104 9.134-33.015 16-71.213 21.34-7.627 1.065-14.043 2.114-14.26 2.33-.216.217 4.224 2.096 9.866 4.176 30.8 11.353 77.19 30.697 94.55 39.427 11.1 5.58 13.336 8.52 18.157 23.855 14.213 45.216 18.677 89.666 11.534 114.842-1.804 6.36-4.497 9.837-9.825 12.686L441.5 519.5l-209.5.153c-115.225.085-210.85-.174-212.5-.576zM420 475.75c-.002-6.616-1.9-25.313-3.576-35.25-1.463-8.665-7.445-33.68-9.168-38.338-.6-1.622-4.207-3.83-12.796-7.834-11.026-5.14-47.094-20.28-55.615-23.346l-3.656-1.315-7.845 6.994c-25.75 22.958-51 36.06-80.88 41.968-11.977 2.367-33.725 2.356-45.93-.024-29.24-5.703-58.095-20.49-80.546-41.275l-5.598-5.183-14.446 6.294C92 381.903 78.3 388.086 69.5 392.18l-16 7.446-2.283 7.937c-6.088 21.166-9.624 41.054-10.79 60.687l-.7 11.75H420v-4.25zm-177.315-96.2c9.006-1.917 16.277-4.497 24.876-8.828 9.225-4.646 25.614-15.63 24.943-16.717-.29-.467-3.507-1.842-7.152-3.055-8.688-2.89-13.852-7.533-15.844-14.243-1.835-6.176-2.095-32.644-.372-37.808 1.563-4.687 6.443-9.588 11.3-11.352 2.236-.812 11.266-2.188 20.066-3.057 16.243-1.604 43.975-5.195 46.243-5.988.74-.258-.77-2.318-3.714-5.072-10.888-10.183-17.666-23.652-20.085-39.912-1.035-6.962-.972-9.69.42-18.108 3.79-22.94 4.945-37.05 5.024-61.41.09-28.397-1.47-41.56-6.79-57.205-9.4-27.642-25.397-40.273-50.118-39.573l-9.017.255-9.983-5.648c-15.362-8.692-22.718-11.018-36.656-11.59-9.906-.408-12.707-.165-18.5 1.607C177.743 47.84 161.566 63.97 155.05 84c-4.043 12.43-5.138 22.726-8.08 76-1.45 26.25-3.41 40.628-7.97 58.5-5.474 21.448-13.452 39.815-22.706 52.274l-2.432 3.273 5.588 2.56c8.634 3.95 22.212 6.358 39.55 7.01 17.877.67 21.703 1.42 26.097 5.118 5.693 4.79 6.856 8.988 6.88 24.833.027 16.607-1.407 22.887-6.287 27.53-2.002 1.904-8.325 5.144-16.688 8.55-7.406 3.015-13.614 5.63-13.796 5.812-.18.182 3.41 2.804 7.982 5.827 14.115 9.333 27.572 15.32 40.812 18.16 8.748 1.876 30.085 1.933 38.685.103z"/>
</svg>
